Coordinates
version=1
nRows=4
nColumns=63
inDegrees=yes

Units are S.I. units (second, meters, Newtons, ...)
If the header above contains a line with 'inDegrees', this indicates whether rotational values are in degrees (yes) or radians (no).

endheader
time	pelvis_tilt	pelvis_list	pelvis_rotation	pelvis_tx	pelvis_ty	pelvis_tz	hip_flexion_r	hip_adduction_r	hip_rotation_r	knee_angle_r	knee_angle_r_beta	ankle_angle_r	subtalar_angle_r	mtp_angle_r	hip_flexion_l	hip_adduction_l	hip_rotation_l	knee_angle_l	knee_angle_l_beta	ankle_angle_l	subtalar_angle_l	mtp_angle_l	L5_S1_Flex_Ext	L5_S1_Lat_Bending	L5_S1_axial_rotation	L4_L5_Flex_Ext	L4_L5_Lat_Bending	L4_L5_axial_rotation	L3_L4_Flex_Ext	L3_L4_Lat_Bending	L3_L4_axial_rotation	L2_L3_Flex_Ext	L2_L3_Lat_Bending	L2_L3_axial_rotation	L1_L2_Flex_Ext	L1_L2_Lat_Bending	L1_L2_axial_rotation	L1_T12_Flex_Ext	L1_T12_Lat_Bending	L1_T12_axial_rotation	Abs_r3	Abs_r2	Abs_r1	Abs_t1	Abs_t2	neck_flexion	neck_bending	neck_rotation	arm_flex_r	arm_add_r	arm_rot_r	elbow_flex_r	pro_sup_r	wrist_flex_r	wrist_dev_r	arm_flex_l	arm_add_l	arm_rot_l	elbow_flex_l	pro_sup_l	wrist_flex_l	wrist_dev_l
      1.91666667	     -0.21926270	     -2.88226075	     88.37923797	      0.32472621	      1.05496870	      0.41648972	      0.25065898	     -6.58452676	     -7.19982478	      9.98443903	      0.17426133	     30.07849817	     11.81014079	      0.00000000	     -0.38249446	      5.42000134	      6.74247667	      5.48165035	      0.09567285	     23.77324314	    -13.62413127	      0.00000000	     -0.19869426	     -0.55074902	      0.31645608	     -0.36899510	     -0.73249620	      0.33623459	     -0.32643479	     -1.33909117	      0.33623459	     -0.22708767	     -1.33909117	      0.27689907	     -0.18450749	     -1.12308741	      0.25712057	     -0.11353390	     -0.85311024	      0.23734206	     -1.41925320	     -6.23018309	      1.76003379	      0.00000000	      0.00000000	     24.48327952	      0.64689030	    -20.63231938	      6.27393921	    -11.27922786	     97.59468985	     14.31108012	     17.56750601	     -4.77784927	    -14.85114651	     -2.01724018	    -12.02987634	    149.56098975	      1.80231545	      3.40585956	    -11.97837805	    -12.59895253
      1.93333333	     -0.16116682	     -2.88701726	     88.44048558	      0.32469554	      1.05498140	      0.41658799	      0.25694193	     -6.53899860	     -7.52724476	      9.99324077	      0.17441495	     30.13109668	     12.15493501	      0.00000000	     -0.50615568	      5.35668934	      6.93241345	      5.19696882	      0.09070422	     23.69942605	    -13.70860453	      0.00000000	     -0.19930895	     -0.54691641	      0.29453906	     -0.37013666	     -0.72739882	      0.31294776	     -0.32744468	     -1.32977255	      0.31294776	     -0.22779020	     -1.32977255	      0.25772168	     -0.18507829	     -1.11527193	      0.23931299	     -0.11388514	     -0.84717351	      0.22090430	     -1.42364393	     -6.18682776	      1.63813791	      0.00000000	      0.00000000	     24.46745271	      0.76558595	    -20.60065112	      6.12568856	    -11.57081544	     94.17951455	     15.00867023	     20.69038063	     -5.40857301	    -14.63305160	     -2.01616313	    -11.98055774	    150.28028211	      1.74529768	      3.60004037	    -12.81317001	    -12.14537918
      1.95000000	     -0.04799350	     -2.90363108	     88.44143631	      0.32478565	      1.05490645	      0.41661639	      0.28297399	     -6.38917985	     -7.24281076	      9.95734565	      0.17378847	     30.16138464	     11.79735999	      0.00000000	     -0.63986907	      5.23966254	      7.25103997	      4.91277848	      0.08574416	     23.50853524	    -14.08837609	      0.00000000	     -0.20052851	     -0.53774175	      0.29314981	     -0.37240149	     -0.71519652	      0.31147168	     -0.32944828	     -1.30746529	      0.31147168	     -0.22918403	     -1.30746529	      0.25650609	     -0.18621077	     -1.09656297	      0.23818422	     -0.11458199	     -0.83296197	      0.21986236	     -1.43235507	     -6.08304220	      1.63041131	      0.00000000	      0.00000000	     24.50268101	      0.82179046	    -20.69554237	      5.58055542	    -11.96944556	     87.95053340	     15.94615963	     26.71558120	     -6.28357951	    -14.03099255	     -1.98407704	    -11.92251106	    150.84143837	      1.73398712	      3.71272082	    -13.11576097	    -11.56935937
      1.96666667	      0.05374110	     -2.90548523	     88.41136414	      0.32495340	      1.05489227	      0.41669024	      0.33295899	     -6.29178369	     -7.38337532	      9.97184308	      0.17404149	     30.30187863	     12.03738730	      0.00000000	     -0.78487248	      5.12883512	      7.42568820	      4.65017480	      0.08116086	     23.34036824	    -14.28824681	      0.00000000	     -0.20348330	     -0.53250706	      0.28852743	     -0.37788884	     -0.70823439	      0.30656039	     -0.33430272	     -1.29473767	      0.30656039	     -0.23256107	     -1.29473767	      0.25246150	     -0.18895459	     -1.08588840	      0.23442854	     -0.11627036	     -0.82485344	      0.21639557	     -1.45346088	     -6.02382639	      1.60470301	      0.00000000	      0.00000000	     24.56338712	      0.89425569	    -20.79587823	      5.51357524	    -12.06762015	     86.74399570	     16.25642042	     28.35651949	     -6.76678609	    -13.96436085	     -2.01019285	    -11.87777926	    150.79149338	      1.79444394	      3.82579091	    -13.21853900	    -11.15836961
